<svg width="244" height="63" viewBox="0 0 244 63" fill="none" xmlns="http://www.w3.org/2000/svg">
<g clip-path="url(#clip0_41_5929)">
<path d="M55.7092 62.2248C44.4059 64.4211 28.1511 61.7442 15.8145 56.7108C3.47787 51.6774 0.031785 46.2513 0.000314053 42.2876C-0.0416473 37.7865 4.12827 35.43 8.31915 34.7841C8.31915 34.7841 -0.429777 39.2852 6.52006 45.5536C7.883 46.7723 9.33839 47.8866 10.8735 48.8868C14.3868 51.1524 18.1554 53.008 22.1034 54.4163C26.365 55.953 30.7519 57.1287 35.2163 57.9304C36.0766 58.0854 36.9473 58.2301 37.8389 58.3696C38.3634 58.4523 38.846 58.5195 39.36 58.5764C40.1888 58.6901 41.0332 58.7727 41.862 58.8348V53.1089C45.1481 54.3529 48.1323 56.2631 50.6214 58.7159C51.3452 58.628 52.0428 58.5195 52.7195 58.3903C51.3767 56.7108 48.0985 53.3879 41.8777 51.2847V42.4582C48.7751 43.7656 53.2125 49.693 54.9172 52.4216V57.8477C60.1099 56.2974 62.6643 52.9952 58.9402 47.6621C65.2187 52.1064 67.0125 60.0285 55.7092 62.2248Z" fill="#879DC3"/>
<path d="M54.891 42.3239V49.3727C53.4818 47.0747 51.5885 45.1013 49.3391 43.5858C47.0896 42.0702 44.5363 41.0478 41.8516 40.5875V33.2286C47.2259 34.4903 51.8976 37.7489 54.891 42.3239Z" fill="#879DC3"/>
<path d="M54.891 33.5748V39.8381C53.2755 37.2904 49.6459 33.3733 41.8516 31.4974V24.5623C48.8171 25.8955 53.1969 31.1511 54.891 33.5748Z" fill="#879DC3"/>
<path d="M54.891 29.5078V30.8359C52.987 28.4019 48.7227 24.0093 41.8516 22.6295V15.9321C41.8516 15.9321 54.891 20.4022 54.891 29.5078Z" fill="#879DC3"/>
<path d="M39.3496 8.78516V58.5764C38.8251 58.5195 38.3321 58.4523 37.8285 58.3696C36.9473 58.2301 36.0766 58.0854 35.2059 57.9304V22.0094L22.1035 15.4154V0L39.3496 8.78516Z" fill="#3C9D9B"/>
<path d="M22.1031 15.4154V54.4112C18.1505 53.0105 14.3766 51.1618 10.8574 48.9024V21.0483L22.1031 15.4154Z" fill="#3C9D9B"/>
<path d="M20.0676 12.3147C20.1205 12.5119 20.1269 12.7184 20.0861 12.9184C20.0453 13.1184 19.9585 13.3065 19.8323 13.4682C19.7062 13.6299 19.544 13.761 19.3584 13.8513C19.1728 13.9416 18.9686 13.9887 18.7615 13.989C18.5681 13.9904 18.3767 13.9499 18.2009 13.8705C18.0251 13.791 17.8691 13.6744 17.744 13.5291C17.6793 13.4543 17.5989 13.3944 17.5083 13.3533C17.4177 13.3123 17.3192 13.2912 17.2195 13.2914H16.034C15.8675 13.2923 15.7068 13.3524 15.5816 13.4606C15.4563 13.5689 15.3749 13.7179 15.3522 13.8805C15.2435 14.4618 14.992 15.0079 14.6196 15.4713C14.2471 15.9346 13.7651 16.3009 13.2157 16.5383C12.6664 16.7756 12.0663 16.8767 11.4681 16.8327C10.8699 16.7888 10.2917 16.601 9.78416 16.286C9.27661 15.971 8.85513 15.5382 8.5566 15.0256C8.25807 14.5129 8.09158 13.936 8.07168 13.3453C8.05178 12.7546 8.17908 12.1681 8.44245 11.6371C8.70583 11.1061 9.09725 10.6468 9.58249 10.2993C9.71391 10.2122 9.81603 10.0885 9.87581 9.944C9.9356 9.7995 9.95034 9.64073 9.91817 9.48794L9.45661 7.17794C9.43199 7.05979 9.37176 6.9517 9.2838 6.8678C9.19583 6.7839 9.08422 6.72811 8.96356 6.70769C8.60992 6.65156 8.27676 6.50717 7.99581 6.28826C7.71486 6.06934 7.49547 5.78318 7.35854 5.45708C7.19477 5.09089 7.13772 4.687 7.1938 4.29068C7.24987 3.89435 7.41683 3.52123 7.67599 3.21313C7.93515 2.90502 8.27628 2.67409 8.66114 2.54621C9.046 2.41834 9.4594 2.39858 9.85502 2.48912C10.2506 2.57967 10.6129 2.77696 10.9011 3.05889C11.1893 3.34082 11.3922 3.69626 11.487 4.08537C11.5817 4.47449 11.5647 4.88193 11.4376 5.26202C11.3106 5.64212 11.0787 5.97985 10.7679 6.23741C10.6754 6.31364 10.6049 6.41252 10.5635 6.52409C10.522 6.63566 10.5111 6.756 10.5319 6.87303C10.5319 6.87303 10.8518 8.64558 10.9829 9.23987C11.1141 9.83416 11.5075 9.64814 11.691 9.64814C12.4124 9.64583 13.1184 9.85289 13.721 10.2435C14.3236 10.6341 14.796 11.1909 15.0794 11.8444C15.1343 11.9597 15.2221 12.0567 15.332 12.1237C15.4419 12.1907 15.5692 12.2247 15.6984 12.2217H17.0621C17.1772 12.2201 17.2901 12.1905 17.3908 12.1355C17.4915 12.0805 17.5768 12.0018 17.6391 11.9064C17.7998 11.6773 18.0298 11.504 18.2963 11.4112C18.5629 11.3185 18.8523 11.3109 19.1235 11.3897C19.3498 11.4478 19.5565 11.564 19.7224 11.7265C19.8882 11.889 20.0074 12.092 20.0676 12.3147Z" fill="#879DC3"/>
<path d="M9.18923 16.6091L9.15251 17.5806C9.15269 17.6303 9.1677 17.6789 9.19569 17.7202C9.22367 17.7616 9.26337 17.7939 9.30986 17.8132C9.43979 17.8703 9.55333 17.9582 9.64029 18.0691C9.72726 18.1801 9.78493 18.3105 9.80816 18.4488C9.83722 18.6106 9.81936 18.7772 9.75663 18.9295C9.6939 19.0817 9.58885 19.2135 9.45354 19.3095C9.31823 19.4056 9.15817 19.4621 8.99172 19.4726C8.82528 19.483 8.65921 19.447 8.5126 19.3687C8.36995 19.2922 8.25137 19.1786 8.1698 19.0402C8.08823 18.9018 8.0468 18.7441 8.05005 18.5841C8.0533 18.4241 8.10109 18.2681 8.18821 18.133C8.27533 17.998 8.39843 17.8892 8.54407 17.8184C8.58841 17.7962 8.6262 17.7632 8.65377 17.7224C8.68134 17.6817 8.69776 17.6346 8.70144 17.5858C8.70144 17.5858 8.7434 16.8623 8.74864 16.6194C8.75389 16.3766 8.59128 16.4127 8.50735 16.3921C8.42059 16.3714 8.33624 16.3419 8.2556 16.3042C8.14457 16.2599 8.02044 16.2599 7.90941 16.3042C7.67863 16.454 7.27476 16.7228 7.11216 16.821C6.94956 16.9191 7.00725 17.2396 7.00725 17.3946C7.00725 17.599 6.94572 17.7988 6.83045 17.9688C6.71518 18.1388 6.55135 18.2712 6.35967 18.3495C6.16798 18.4277 5.95706 18.4482 5.75356 18.4083C5.55007 18.3684 5.36315 18.27 5.21644 18.1254C5.06973 17.9809 4.96981 17.7967 4.92933 17.5962C4.88886 17.3957 4.90964 17.1879 4.98904 16.9991C5.06844 16.8102 5.20289 16.6488 5.3754 16.5352C5.54791 16.4217 5.75073 16.3611 5.95821 16.3611C6.13138 16.3595 6.30175 16.4041 6.45126 16.4902C6.5124 16.5205 6.58065 16.5341 6.64891 16.5295C6.71717 16.525 6.78294 16.5025 6.8394 16.4644L7.45309 16.0458C7.51793 16.007 7.56537 15.9454 7.58582 15.8735C7.60627 15.8015 7.5982 15.7245 7.56323 15.6582C7.48194 15.5151 7.42522 15.3597 7.39538 15.1983C7.38604 15.1477 7.36159 15.101 7.32514 15.0642C7.2887 15.0273 7.24194 15.0021 7.19083 14.9916L6.66631 14.8572C6.6199 14.8506 6.57258 14.8536 6.52741 14.866C6.48223 14.8785 6.44021 14.9001 6.40406 14.9296C6.33491 14.9817 6.25369 15.0161 6.16771 15.0295C6.08173 15.043 5.99368 15.0352 5.91154 15.0068C5.82939 14.9783 5.75572 14.9303 5.69716 14.8668C5.6386 14.8033 5.597 14.7265 5.57611 14.6432C5.55522 14.5599 5.55569 14.4728 5.57749 14.3898C5.59929 14.3067 5.64173 14.2304 5.70098 14.1675C5.76023 14.1047 5.83442 14.0573 5.91687 14.0298C5.99932 14.0022 6.08744 13.9954 6.17327 14.0097C6.24969 14.0263 6.32139 14.0595 6.3831 14.1069C6.44482 14.1542 6.49498 14.2146 6.52993 14.2836C6.54798 14.318 6.5732 14.3481 6.60393 14.3722C6.63467 14.3962 6.67023 14.4136 6.70827 14.4231L7.17509 14.5368C7.23981 14.5542 7.30874 14.5475 7.36873 14.5179C7.42872 14.4883 7.47556 14.4381 7.50029 14.3766C7.59527 14.1521 7.74524 13.9542 7.93679 13.8006C8.12833 13.6471 8.3555 13.5427 8.59799 13.4968C8.84047 13.4509 9.09073 13.4649 9.3264 13.5375C9.56207 13.6101 9.77581 13.7391 9.94852 13.913C10.1212 14.0869 10.2475 14.3002 10.3162 14.5339C10.3848 14.7676 10.3935 15.0144 10.3417 15.2523C10.2899 15.4901 10.1791 15.7116 10.0191 15.897C9.85922 16.0824 9.65518 16.2258 9.42526 16.3145C9.35948 16.3329 9.30127 16.3713 9.2589 16.4242C9.21652 16.4771 9.19215 16.5418 9.18923 16.6091Z" fill="#DCC558"/>
<path d="M75.2627 25.5391H88.6851V30.0505H79.9099V34.4327H88.6851V38.8615H79.9099V45.2333H88.6851V49.7654H75.2627V25.5391Z" fill="black"/>
<path d="M103.676 34.3501L100.849 37.12C99.7057 36.0003 98.6567 35.4405 97.7021 35.4405C97.2769 35.4149 96.8549 35.5274 96.5009 35.7609C96.368 35.8485 96.2588 35.9668 96.183 36.1055C96.1071 36.2442 96.0668 36.3991 96.0656 36.5567C96.0691 36.8056 96.1685 37.0439 96.3436 37.2234C96.7483 37.5705 97.207 37.8514 97.7021 38.0554L99.3753 38.8822C101.138 39.7349 102.344 40.6082 103.005 41.4971C103.766 42.5783 104.104 43.8942 103.958 45.2021C103.811 46.5099 103.19 47.7214 102.208 48.6131C101.022 49.6776 99.433 50.2099 97.4398 50.2099C96.208 50.246 94.9859 49.9857 93.8791 49.4518C92.7723 48.9178 91.8143 48.1262 91.0879 47.1454L93.8941 44.1326C94.4195 44.7406 95.0565 45.2456 95.7718 45.6209C96.353 45.9623 97.0105 46.1576 97.6863 46.1894C98.2079 46.2154 98.7228 46.064 99.1445 45.7605C99.3091 45.6507 99.4449 45.504 99.5407 45.3324C99.6364 45.1608 99.6894 44.9692 99.6952 44.7734C99.6952 44.0809 99.0291 43.4091 97.7021 42.7477L96.1652 41.9932C93.2279 40.529 91.7575 38.7013 91.754 36.5102C91.7508 35.8249 91.8977 35.147 92.1847 34.5227C92.4716 33.8984 92.8919 33.3425 93.4167 32.8928C94.5839 31.8678 96.1081 31.3271 97.6706 31.3838C98.8346 31.3801 99.983 31.6467 101.023 32.1621C102.063 32.6775 102.965 33.4271 103.655 34.3501H103.676Z" fill="black"/>
<path d="M108.156 25.2341H112.719V31.8488H115.426V35.7195H112.719V49.7654H108.156V35.7195H105.816V31.8488H108.156V25.2341Z" fill="black"/>
<path d="M131.286 31.8488H135.85V49.7654H131.286V47.8688C130.513 48.627 129.604 49.2384 128.606 49.6724C127.683 50.0453 126.693 50.2332 125.695 50.2253C124.543 50.229 123.404 49.9908 122.353 49.5266C121.302 49.0623 120.364 48.3827 119.6 47.5329C117.883 45.7228 116.963 43.317 117.041 40.8407C117.041 38.0846 117.869 35.8176 119.527 34.0399C120.28 33.1936 121.21 32.518 122.253 32.0594C123.296 31.6009 124.427 31.3704 125.569 31.3837C126.625 31.3782 127.671 31.5857 128.643 31.9935C129.639 32.4294 130.54 33.0506 131.297 33.8229L131.286 31.8488ZM126.482 35.5334C125.822 35.5182 125.167 35.6422 124.56 35.8971C123.953 36.1521 123.408 36.532 122.962 37.0114C122.056 38.0771 121.562 39.4242 121.567 40.8144C121.572 42.2046 122.075 43.5484 122.989 44.608C123.43 45.0909 123.972 45.4746 124.578 45.7332C125.183 45.9917 125.838 46.1191 126.498 46.1066C127.163 46.1224 127.824 45.9993 128.438 45.7455C129.052 45.4917 129.604 45.1128 130.059 44.6338C131.03 43.5817 131.539 42.194 131.475 40.7735C131.506 40.0812 131.396 39.3898 131.153 38.7395C130.91 38.0892 130.538 37.493 130.059 36.9855C129.6 36.5099 129.044 36.1347 128.427 35.8846C127.811 35.6344 127.148 35.5147 126.482 35.5334Z" fill="black"/>
<path d="M141.016 25.2341H145.579V31.8488H148.286V35.7195H145.579V49.7654H141.016V35.7195H138.677V31.8488H141.016V25.2341Z" fill="black"/>
<path d="M168.968 42.1068H154.281C154.444 43.2918 155.047 44.3749 155.975 45.1454C156.975 45.9227 158.223 46.3223 159.495 46.272C160.31 46.2828 161.119 46.1324 161.874 45.8297C162.629 45.527 163.315 45.0782 163.89 44.5098L167.735 46.2875C166.863 47.5517 165.676 48.5746 164.289 49.259C162.798 49.9367 161.168 50.2674 159.526 50.2253C156.673 50.2253 154.349 49.3382 152.556 47.5639C151.67 46.6926 150.975 45.6524 150.512 44.5069C150.05 43.3615 149.829 42.135 149.865 40.9027C149.826 39.6488 150.043 38.3999 150.505 37.2306C150.966 36.0613 151.662 34.9955 152.55 34.0968C153.418 33.2087 154.464 32.5087 155.622 32.0416C156.78 31.5744 158.024 31.3504 159.275 31.3837C162.138 31.3837 164.467 32.2881 166.261 34.0968C168.055 35.9055 168.957 38.2913 168.968 41.2541V42.1068ZM164.404 38.5669C164.112 37.5759 163.483 36.7145 162.621 36.1277C161.719 35.4981 160.637 35.1702 159.532 35.1924C158.331 35.165 157.155 35.5282 156.185 36.2259C155.441 36.8508 154.866 37.6481 154.512 38.5462L164.404 38.5669Z" fill="black"/>
<path d="M182.716 25.5391H187.394V45.3884H194.213V49.7861H182.716V25.5391Z" fill="black"/>
<path d="M199.054 24.4692C199.438 24.4644 199.819 24.5382 200.173 24.6858C200.527 24.8335 200.846 25.0518 201.11 25.327C201.661 25.8781 201.97 26.6206 201.97 27.3941C201.97 28.1677 201.661 28.9102 201.11 29.4612C200.848 29.7325 200.532 29.9478 200.182 30.0936C199.832 30.2394 199.455 30.3127 199.075 30.3088C198.683 30.3161 198.295 30.2432 197.934 30.0946C197.572 29.946 197.246 29.7251 196.977 29.4458C196.698 29.1705 196.479 28.8428 196.333 28.4824C196.186 28.1219 196.114 27.736 196.122 27.3476C196.122 26.5888 196.427 25.8608 196.971 25.3232C197.514 24.7857 198.252 24.4823 199.022 24.4795L199.054 24.4692ZM196.767 31.8487H201.33V49.7653H196.767V31.8487Z" fill="black"/>
<path d="M205.479 31.8489H210.043V33.6834C210.881 32.9475 211.829 32.3427 212.854 31.8902C213.672 31.5544 214.548 31.3789 215.435 31.3734C216.288 31.3582 217.136 31.5159 217.926 31.8368C218.715 32.1578 219.429 32.635 220.024 33.239C221.073 34.2725 221.598 35.8229 221.598 37.89V49.7293H217.087V41.9157C217.144 40.49 217.046 39.0623 216.793 37.6574C216.644 37.0267 216.286 36.463 215.775 36.0554C215.258 35.6764 214.626 35.4815 213.982 35.5025C213.098 35.4869 212.244 35.8156 211.606 36.4172C210.902 37.1035 210.423 37.9819 210.231 38.939C210.058 40.1368 209.991 41.3472 210.032 42.5565V49.7448H205.469L205.479 31.8489Z" fill="black"/>
<path d="M226.056 24.9292H230.619V39.2336L237.333 31.8488H243.066L235.229 40.4324L244.005 49.7654H238.34L230.619 41.497V49.7654H226.056V24.9292Z" fill="black"/>
</g>
<defs>
<clipPath id="clip0_41_5929">
<rect width="244" height="63" fill="white"/>
</clipPath>
</defs>
</svg>
